<svg xmlns="http://www.w3.org/2000/svg" xmlns:xlink="http://www.w3.org/1999/xlink" width="300" zoomAndPan="magnify" viewBox="0 0 224.87999 67.499998" height="90" preserveAspectRatio="xMidYMid meet" version="1.0"><defs><clipPath id="6b0f18c7c2"><path d="M 7.46875 10.800781 L 51 10.800781 L 51 56.214844 L 7.46875 56.214844 Z M 7.46875 10.800781 " clip-rule="nonzero"/></clipPath><clipPath id="31acc69bdb"><path d="M 30 10.800781 L 92 10.800781 L 92 56.214844 L 30 56.214844 Z M 30 10.800781 " clip-rule="nonzero"/></clipPath><clipPath id="2ff6e7d242"><path d="M 81 11 L 138 11 L 138 56.214844 L 81 56.214844 Z M 81 11 " clip-rule="nonzero"/></clipPath><clipPath id="59e3ad9f17"><path d="M 71 10.800781 L 149 10.800781 L 149 56.214844 L 71 56.214844 Z M 71 10.800781 " clip-rule="nonzero"/></clipPath><clipPath id="9b33e84554"><path d="M 137 10.800781 L 179 10.800781 L 179 52 L 137 52 Z M 137 10.800781 " clip-rule="nonzero"/></clipPath><clipPath id="38479a4eea"><path d="M 127 10.800781 L 190 10.800781 L 190 56.214844 L 127 56.214844 Z M 127 10.800781 " clip-rule="nonzero"/></clipPath><clipPath id="61bff712df"><path d="M 179 11 L 217.414062 11 L 217.414062 53 L 179 53 Z M 179 11 " clip-rule="nonzero"/></clipPath><clipPath id="c98a686aa8"><path d="M 168 10.800781 L 217.414062 10.800781 L 217.414062 56.214844 L 168 56.214844 Z M 168 10.800781 " clip-rule="nonzero"/></clipPath></defs><path fill="#231f20" d="M 38.800781 30.785156 C 38.039062 32.472656 36.980469 33.925781 35.613281 35.140625 C 34.25 36.355469 32.613281 37.292969 30.707031 37.949219 C 28.804688 38.605469 26.703125 38.9375 24.410156 38.9375 L 14.492188 38.9375 L 14.492188 47.136719 C 14.492188 48.21875 14.726562 49.105469 15.199219 49.796875 C 15.671875 50.488281 16.296875 50.832031 17.074219 50.832031 L 17.578125 50.832031 L 17.578125 51.746094 L 8.21875 51.746094 L 8.21875 50.832031 L 8.722656 50.832031 C 9.5 50.832031 10.125 50.484375 10.597656 49.796875 C 11.070312 49.105469 11.304688 48.21875 11.304688 47.136719 L 11.304688 15.851562 C 11.304688 14.773438 11.070312 13.894531 10.597656 13.21875 C 10.125 12.542969 9.5 12.203125 8.722656 12.203125 L 8.21875 12.203125 L 8.21875 11.246094 L 26.835938 11.246094 C 28.789062 11.246094 30.570312 11.585938 32.171875 12.261719 C 33.773438 12.9375 35.148438 13.878906 36.296875 15.097656 C 37.441406 16.3125 38.335938 17.78125 38.976562 19.5 C 39.617188 21.222656 39.9375 23.113281 39.9375 25.171875 C 39.9375 27.226562 39.558594 29.101562 38.800781 30.789062 Z M 29.390625 37.238281 C 30.894531 36.617188 32.175781 35.726562 33.234375 34.582031 C 34.296875 33.433594 35.125 32.058594 35.714844 30.453125 C 36.304688 28.851562 36.601562 27.089844 36.601562 25.164062 C 36.601562 23.242188 36.367188 21.417969 35.894531 19.800781 C 35.417969 18.179688 34.753906 16.796875 33.894531 15.648438 C 33.03125 14.5 32.003906 13.605469 30.808594 12.964844 C 29.609375 12.324219 28.289062 12.003906 26.835938 12.003906 L 14.492188 12.003906 L 14.492188 38.171875 L 24.410156 38.171875 C 26.230469 38.171875 27.890625 37.859375 29.390625 37.234375 Z M 29.390625 37.238281 " fill-opacity="1" fill-rule="nonzero"/><g clip-path="url(#6b0f18c7c2)"><path stroke-linecap="butt" transform="matrix(0.2533, 0, 0, 0.253429, 7.467571, 10.841622)" fill="none" stroke-linejoin="miter" d="M 123.700188 78.694628 C 120.693004 85.353286 116.513788 91.087131 111.116277 95.880749 C 105.734187 100.674366 99.272595 104.373621 91.746922 106.963099 C 84.236671 109.552578 75.939925 110.86273 66.887528 110.86273 L 27.732439 110.86273 L 27.732439 143.215795 C 27.732439 147.485352 28.657727 150.98423 30.523724 153.712431 C 32.38972 156.440631 34.857154 157.797024 37.926025 157.797024 L 39.915393 157.797024 L 39.915393 161.403798 L 2.965574 161.403798 L 2.965574 157.797024 L 4.954942 157.797024 C 8.023813 157.797024 10.491246 156.425217 12.357243 153.712431 C 14.22324 150.98423 15.148527 147.485352 15.148527 143.215795 L 15.148527 19.768583 C 15.148527 15.514441 14.22324 12.046389 12.357243 9.379843 C 10.491246 6.713297 8.023813 5.372317 4.954942 5.372317 L 2.965574 5.372317 L 2.965574 1.595995 L 76.464255 1.595995 C 84.174985 1.595995 91.207171 2.936975 97.52997 5.603521 C 103.852769 8.270067 109.281123 11.984735 113.815032 16.793766 C 118.33352 21.587384 121.865035 27.382883 124.394154 34.16485 C 126.923274 40.96223 128.187834 48.422394 128.187834 56.545341 C 128.187834 64.652874 126.691952 72.051383 123.700188 78.710042 Z M 86.54989 104.157831 C 92.487152 101.707075 97.545391 98.192783 101.724607 93.67661 C 105.919244 89.145023 109.188594 83.719449 111.517235 77.384475 C 113.845875 71.064915 115.017906 64.113399 115.017906 56.514513 C 115.017906 48.931041 114.092619 41.732908 112.226622 35.351694 C 110.345204 28.955066 107.723555 23.498665 104.330834 18.967078 C 100.922691 14.435491 96.866847 10.905786 92.14788 8.377962 C 87.413492 5.850138 82.201038 4.586226 76.464255 4.586226 L 27.732439 4.586226 L 27.732439 107.841672 L 66.887528 107.841672 C 74.073928 107.841672 80.628049 106.608587 86.54989 104.142418 Z M 86.54989 104.157831 " stroke="#231f20" stroke-width="3" stroke-opacity="1" stroke-miterlimit="10"/></g><path fill="#231f20" d="M 80.5625 11.246094 L 80.5625 12.210938 L 80.003906 12.210938 C 79.636719 12.210938 79.28125 12.328125 78.945312 12.566406 C 78.605469 12.800781 78.304688 13.113281 78.035156 13.5 C 77.761719 13.886719 77.546875 14.335938 77.375 14.839844 C 77.207031 15.34375 77.121094 15.871094 77.121094 16.410156 L 77.121094 38.730469 C 77.121094 40.453125 76.753906 42.105469 76.011719 43.691406 C 75.269531 45.277344 74.207031 46.675781 72.824219 47.894531 C 71.441406 49.109375 69.738281 50.070312 67.714844 50.777344 C 65.691406 51.488281 63.414062 51.839844 60.886719 51.839844 C 58.359375 51.839844 55.886719 51.441406 53.777344 50.648438 C 51.671875 49.855469 49.890625 48.777344 48.441406 47.410156 C 46.988281 46.046875 45.878906 44.460938 45.101562 42.652344 C 44.328125 40.847656 43.941406 38.933594 43.941406 36.90625 L 43.941406 15.902344 C 43.941406 14.925781 43.679688 14.0625 43.15625 13.320312 C 42.632812 12.578125 42.03125 12.207031 41.359375 12.207031 L 40.902344 12.207031 L 40.902344 11.246094 L 50.007812 11.246094 L 50.007812 12.210938 L 49.554688 12.210938 C 48.914062 12.210938 48.347656 12.546875 47.859375 13.222656 C 47.371094 13.898438 47.089844 14.691406 47.023438 15.605469 L 47.074219 37.570312 C 47.074219 39.324219 47.402344 40.996094 48.058594 42.582031 C 48.71875 44.167969 49.652344 45.566406 50.867188 46.78125 C 52.082031 47.996094 53.566406 48.960938 55.320312 49.667969 C 57.074219 50.375 59.066406 50.730469 61.292969 50.730469 C 63.519531 50.730469 65.699219 50.390625 67.539062 49.714844 C 69.378906 49.042969 70.9375 48.140625 72.222656 47.007812 C 73.503906 45.878906 74.480469 44.570312 75.15625 43.085938 C 75.832031 41.601562 76.167969 40.050781 76.167969 38.429688 L 76.21875 16.109375 C 76.148438 15.0625 75.824219 14.152344 75.234375 13.375 C 74.644531 12.597656 73.957031 12.210938 73.183594 12.210938 L 72.625 12.210938 L 72.625 11.246094 L 80.570312 11.246094 Z M 80.5625 11.246094 " fill-opacity="1" fill-rule="nonzero"/><g clip-path="url(#31acc69bdb)"><path stroke-linecap="butt" transform="matrix(0.2533, 0, 0, 0.253429, 7.467571, 10.841622)" fill="none" stroke-linejoin="miter" d="M 288.571024 1.595995 L 288.571024 5.403144 L 286.365755 5.403144 C 284.916137 5.403144 283.512784 5.865551 282.186539 6.805778 C 280.844872 7.730592 279.657419 8.963677 278.593339 10.48962 C 277.513836 12.015562 276.665656 13.788122 275.987112 15.776471 C 275.323989 17.76482 274.984717 19.845651 274.984717 21.972723 L 274.984717 110.045812 C 274.984717 116.843192 273.535099 123.363128 270.605022 129.621034 C 267.674944 135.87894 263.480307 141.396995 258.02111 146.206026 C 252.561913 150.999644 245.838156 154.79138 237.84984 157.581234 C 229.861523 160.386503 220.870812 161.773723 210.893127 161.773723 C 200.915442 161.773723 191.153657 160.20154 182.826068 157.072587 C 174.513901 153.943634 167.481715 149.689491 161.760353 144.294745 C 156.02357 138.915412 151.643875 132.657506 148.575004 125.521027 C 145.521555 118.399962 143.994831 110.847317 143.994831 102.847678 L 143.994831 19.96896 C 143.994831 16.115569 142.961593 12.709172 140.895117 9.780596 C 138.828641 6.852019 136.453736 5.387731 133.801245 5.387731 L 131.996934 5.387731 L 131.996934 1.595995 L 167.944359 1.595995 L 167.944359 5.403144 L 166.155469 5.403144 C 163.62635 5.403144 161.390238 6.728711 159.462556 9.395257 C 157.534873 12.061803 156.424528 15.190756 156.162363 18.797529 L 156.362842 105.467984 C 156.362842 112.388673 157.658245 118.985677 160.24905 125.243583 C 162.855277 131.501489 166.541006 137.019544 171.33708 141.813161 C 176.133154 146.606779 181.993309 150.413928 188.917545 153.203783 C 195.841781 155.993638 203.706726 157.396272 212.496959 157.396272 C 221.287191 157.396272 229.892366 156.055292 237.155874 153.388746 C 244.419382 150.737613 250.572545 147.177081 255.646205 142.707148 C 260.704444 138.252629 264.559809 133.089086 267.227722 127.231932 C 269.895635 121.374779 271.22188 115.255595 271.22188 108.858967 L 271.422359 20.785878 C 271.144773 16.655044 269.864792 13.063684 267.536151 9.996386 C 265.207511 6.929087 262.493334 5.403144 259.439885 5.403144 L 257.234616 5.403144 L 257.234616 1.595995 L 288.601866 1.595995 Z M 288.571024 1.595995 " stroke="#231f20" stroke-width="3" stroke-opacity="1" stroke-miterlimit="10"/></g><g clip-path="url(#2ff6e7d242)"><path fill="#231f20" d="M 134.390625 53.363281 C 133.277344 54.003906 132.140625 54.550781 130.976562 55.007812 C 129.8125 55.464844 128.617188 55.792969 127.382812 55.992188 C 126.152344 56.195312 124.878906 56.226562 123.566406 56.09375 C 121.507812 55.824219 119.675781 55.25 118.074219 54.375 C 116.472656 53.496094 115.039062 52.476562 113.773438 51.3125 C 112.511719 50.148438 111.363281 48.90625 110.335938 47.589844 C 109.308594 46.277344 108.34375 45.042969 107.453125 43.894531 C 106.558594 42.75 105.675781 41.746094 104.796875 40.886719 C 103.917969 40.023438 103.007812 39.476562 102.0625 39.242188 C 101.65625 39.140625 101.117188 39.0625 100.445312 39.011719 C 99.769531 38.960938 98.992188 38.9375 98.117188 38.9375 L 88.199219 38.9375 L 88.199219 47.136719 C 88.199219 48.25 88.445312 49.144531 88.933594 49.820312 C 89.421875 50.496094 90.054688 50.835938 90.832031 50.835938 L 91.285156 50.835938 L 91.285156 51.746094 L 81.976562 51.746094 L 81.976562 50.835938 L 82.433594 50.835938 C 83.246094 50.835938 83.886719 50.5 84.355469 49.820312 C 84.832031 49.148438 85.066406 48.253906 85.066406 47.136719 L 85.066406 15.851562 C 85.066406 14.773438 84.832031 13.894531 84.355469 13.21875 C 83.886719 12.542969 83.246094 12.203125 82.433594 12.203125 L 81.976562 12.203125 L 81.976562 11.246094 L 100.546875 11.246094 C 102.5 11.246094 104.289062 11.585938 105.90625 12.261719 C 107.527344 12.933594 108.910156 13.878906 110.054688 15.097656 C 111.203125 16.3125 112.09375 17.78125 112.738281 19.5 C 113.378906 21.222656 113.699219 23.113281 113.699219 25.171875 C 113.699219 26.789062 113.457031 28.308594 112.964844 29.726562 C 112.476562 31.144531 111.785156 32.410156 110.890625 33.523438 C 109.996094 34.636719 108.910156 35.597656 107.628906 36.40625 C 106.34375 37.21875 104.910156 37.84375 103.328125 38.28125 C 104.84375 38.6875 106.285156 39.46875 107.652344 40.636719 C 109.019531 41.796875 110.335938 43.097656 111.597656 44.53125 C 112.863281 45.96875 114.121094 47.410156 115.367188 48.859375 C 116.617188 50.3125 117.898438 51.507812 119.214844 52.453125 C 120.628906 53.464844 122.097656 54.125 123.617188 54.429688 C 125.132812 54.734375 126.648438 54.757812 128.167969 54.503906 C 129.6875 54.25 131.203125 53.78125 132.722656 53.089844 C 134.242188 52.394531 135.742188 51.558594 137.226562 50.582031 L 137.683594 51.292969 C 136.605469 52.035156 135.507812 52.726562 134.394531 53.367188 Z M 103.097656 37.238281 C 104.601562 36.617188 105.890625 35.726562 106.96875 34.582031 C 108.046875 33.433594 108.882812 32.058594 109.472656 30.453125 C 110.0625 28.851562 110.359375 27.089844 110.359375 25.164062 C 110.359375 23.242188 110.125 21.425781 109.652344 19.824219 C 109.175781 18.222656 108.515625 16.839844 107.652344 15.675781 C 106.792969 14.511719 105.753906 13.605469 104.542969 12.96875 C 103.328125 12.328125 101.996094 12.003906 100.546875 12.003906 L 88.199219 12.003906 L 88.199219 38.175781 L 98.117188 38.175781 C 99.9375 38.175781 101.597656 37.863281 103.097656 37.238281 Z M 129.609375 12.738281 C 129.191406 13.195312 128.976562 13.964844 128.976562 15.042969 L 128.976562 40.304688 C 128.976562 41.214844 129.164062 41.941406 129.535156 42.480469 C 129.90625 43.019531 130.410156 43.289062 131.050781 43.289062 L 131.457031 43.289062 L 131.457031 44.097656 L 123.71875 44.097656 L 123.71875 43.289062 C 124.527344 43.289062 125.144531 43.058594 125.5625 42.605469 C 125.984375 42.148438 126.195312 41.378906 126.195312 40.300781 L 126.195312 15.042969 C 126.195312 14.132812 126.011719 13.40625 125.640625 12.867188 C 125.265625 12.328125 124.761719 12.054688 124.121094 12.054688 L 123.71875 12.054688 L 123.71875 11.246094 L 131.457031 11.246094 L 131.457031 12.058594 C 130.648438 12.058594 130.03125 12.285156 129.609375 12.742188 Z M 129.609375 12.738281 " fill-opacity="1" fill-rule="nonzero"/></g><g clip-path="url(#59e3ad9f17)"><path stroke-linecap="butt" transform="matrix(0.2533, 0, 0, 0.253429, 7.467571, 10.841622)" fill="none" stroke-linejoin="miter" d="M 501.07875 167.785012 C 496.683634 170.312836 492.195989 172.470735 487.600394 174.274121 C 483.004799 176.077508 478.285832 177.372247 473.41265 178.158339 C 468.55489 178.959844 463.527494 179.083152 458.345883 178.559091 C 450.218773 177.495556 442.986108 175.229762 436.66331 171.777124 C 430.340511 168.309073 424.680835 164.286134 419.684281 159.692892 C 414.70315 155.099651 410.16924 150.198139 406.113396 145.003768 C 402.057552 139.824812 398.248451 134.954127 394.732358 130.42254 C 391.200844 125.906366 387.715594 121.945081 384.245765 118.554097 C 380.775936 115.1477 377.182736 112.989802 373.450743 112.064988 C 371.846911 111.664236 369.718749 111.355964 367.066258 111.155588 C 364.398345 110.955212 361.329475 110.86273 357.875067 110.86273 L 318.719979 110.86273 L 318.719979 143.215795 C 318.719979 147.60866 319.691531 151.138366 321.619214 153.804912 C 323.546896 156.471458 326.045173 157.812438 329.114043 157.812438 L 330.902933 157.812438 L 330.902933 161.403798 L 294.153592 161.403798 L 294.153592 157.812438 L 295.957903 157.812438 C 299.165567 157.812438 301.694687 156.486872 303.545262 153.804912 C 305.42668 151.153779 306.351968 147.624074 306.351968 143.215795 L 306.351968 19.768583 C 306.351968 15.514441 305.42668 12.046389 303.545262 9.379843 C 301.694687 6.713297 299.165567 5.372317 295.957903 5.372317 L 294.153592 5.372317 L 294.153592 1.595995 L 367.467216 1.595995 C 375.177946 1.595995 382.240975 2.936975 388.62546 5.603521 C 395.025366 8.254653 400.484563 11.984735 405.003051 16.793766 C 409.53696 21.587384 413.053053 27.382883 415.597594 34.16485 C 418.126714 40.96223 419.391274 48.422394 419.391274 56.545341 C 419.391274 62.926555 418.435143 68.92243 416.492039 74.517553 C 414.564357 80.112676 411.834758 85.10667 408.303244 89.499534 C 404.771729 93.892399 400.484563 97.684135 395.426324 100.874743 C 390.352663 104.080763 384.692987 106.546933 378.447296 108.273252 C 384.430823 109.876262 390.121341 112.958975 395.518853 117.567629 C 400.916364 122.145457 406.113396 127.278173 411.094528 132.93495 C 416.091081 138.607141 421.056791 144.294745 425.976237 150.013176 C 430.911105 155.747021 435.969344 160.46357 441.166376 164.193652 C 446.748945 168.185765 452.547414 170.790656 458.546362 171.992914 C 464.529889 173.195172 470.513415 173.287653 476.512364 172.285772 C 482.511312 171.28389 488.494839 169.434263 494.493787 166.706063 C 500.492735 163.962449 506.414576 160.663947 512.274731 156.810556 L 514.079042 159.615825 C 509.822719 162.544401 505.489288 165.272601 501.094172 167.800426 Z M 377.53743 104.157831 C 383.474692 101.707075 388.563774 98.192783 392.820097 93.67661 C 397.07642 89.145023 400.376613 83.719449 402.705253 77.384475 C 405.033894 71.064915 406.205925 64.113399 406.205925 56.514513 C 406.205925 48.931041 405.280637 41.763735 403.414641 35.444175 C 401.533222 29.124615 398.926995 23.668214 395.518853 19.074973 C 392.126131 14.481732 388.024023 10.905786 383.24337 8.393375 C 378.447296 5.865551 373.188578 4.586226 367.467216 4.586226 L 318.719979 4.586226 L 318.719979 107.857086 L 357.875067 107.857086 C 365.061468 107.857086 371.615589 106.624001 377.53743 104.157831 Z M 482.202883 7.483975 C 480.552786 9.287362 479.704606 12.323833 479.704606 16.577976 L 479.704606 116.257477 C 479.704606 119.848837 480.444836 122.715759 481.909875 124.84283 C 483.374914 126.969902 485.364282 128.033438 487.893402 128.033438 L 489.497233 128.033438 L 489.497233 131.224045 L 458.94732 131.224045 L 458.94732 128.033438 C 462.139562 128.033438 464.576153 127.124037 466.226249 125.336064 C 467.891767 123.532678 468.724526 120.496206 468.724526 116.242063 L 468.724526 16.577976 C 468.724526 12.986617 467.999717 10.119694 466.534679 7.992623 C 465.054218 5.865551 463.06485 4.786602 460.535731 4.786602 L 458.94732 4.786602 L 458.94732 1.595995 L 489.497233 1.595995 L 489.497233 4.802015 C 486.304991 4.802015 483.8684 5.696002 482.202883 7.499389 Z M 482.202883 7.483975 " stroke="#231f20" stroke-width="3" stroke-opacity="1" stroke-miterlimit="10"/></g><g clip-path="url(#9b33e84554)"><path fill="#231f20" d="M 177.011719 39.238281 C 176.152344 41.734375 174.882812 43.921875 173.195312 45.792969 C 171.507812 47.667969 169.40625 49.152344 166.894531 50.25 C 164.382812 51.347656 161.472656 51.894531 158.167969 51.894531 C 154.863281 51.894531 151.902344 51.347656 149.390625 50.25 C 146.878906 49.152344 144.777344 47.667969 143.089844 45.792969 C 141.40625 43.921875 140.128906 41.738281 139.273438 39.238281 C 138.410156 36.742188 137.984375 34.109375 137.984375 31.339844 C 137.984375 28.574219 138.414062 25.949219 139.273438 23.46875 C 140.128906 20.988281 141.40625 18.8125 143.089844 16.9375 C 144.777344 15.066406 146.878906 13.582031 149.390625 12.484375 C 151.902344 11.386719 154.828125 10.839844 158.167969 10.839844 C 161.507812 10.839844 164.382812 11.386719 166.894531 12.484375 C 169.40625 13.582031 171.507812 15.066406 173.195312 16.9375 C 174.882812 18.8125 176.152344 20.988281 177.011719 23.46875 C 177.875 25.949219 178.304688 28.574219 178.304688 31.339844 C 178.304688 34.109375 177.871094 36.742188 177.011719 39.238281 Z M 165.429688 49.539062 C 167.503906 48.476562 169.238281 47.042969 170.636719 45.238281 C 172.035156 43.429688 173.09375 41.332031 173.800781 38.933594 C 174.507812 36.539062 174.859375 34.007812 174.859375 31.339844 C 174.859375 28.675781 174.507812 26.152344 173.800781 23.773438 C 173.089844 21.394531 172.035156 19.304688 170.636719 17.496094 C 169.238281 15.691406 167.503906 14.257812 165.429688 13.195312 C 163.351562 12.132812 160.933594 11.597656 158.167969 11.597656 C 155.402344 11.597656 152.972656 12.132812 150.882812 13.195312 C 148.792969 14.253906 147.039062 15.691406 145.621094 17.496094 C 144.207031 19.300781 143.140625 21.394531 142.4375 23.773438 C 141.730469 26.152344 141.375 28.675781 141.375 31.339844 C 141.375 34.007812 141.730469 36.539062 142.4375 38.933594 C 143.144531 41.328125 144.207031 43.429688 145.621094 45.238281 C 147.039062 47.042969 148.792969 48.476562 150.882812 49.539062 C 152.976562 50.601562 155.402344 51.132812 158.167969 51.132812 C 160.933594 51.132812 163.351562 50.601562 165.429688 49.539062 Z M 165.429688 49.539062 " fill-opacity="1" fill-rule="nonzero"/></g><g clip-path="url(#38479a4eea)"><path stroke-linecap="butt" transform="matrix(0.2533, 0, 0, 0.253429, 7.467571, 10.841622)" fill="none" stroke-linejoin="miter" d="M 669.342307 112.049575 C 665.949585 121.89884 660.937611 130.530434 654.27554 137.91353 C 647.613469 145.31204 639.316723 151.169193 629.400724 155.500404 C 619.484725 159.831614 607.995737 161.989513 594.949181 161.989513 C 581.902625 161.989513 570.213158 159.831614 560.297159 155.500404 C 550.38116 151.169193 542.084414 145.31204 535.422343 137.91353 C 528.775694 130.530434 523.732876 121.914254 520.355576 112.049575 C 516.947433 102.200309 515.266494 91.811569 515.266494 80.883354 C 515.266494 69.970552 516.962855 59.612639 520.355576 49.825028 C 523.732876 40.037416 528.775694 31.452063 535.422343 24.053553 C 542.084414 16.670458 550.38116 10.813304 560.297159 6.482094 C 570.213158 2.150883 581.763832 -0.00701561 594.949181 -0.00701561 C 608.13453 -0.00701561 619.484725 2.150883 629.400724 6.482094 C 639.316723 10.813304 647.613469 16.670458 654.27554 24.053553 C 660.937611 31.452063 665.949585 40.037416 669.342307 49.825028 C 672.75045 59.612639 674.44681 69.970552 674.44681 80.883354 C 674.44681 91.811569 672.735028 102.200309 669.342307 112.049575 Z M 623.617676 152.695136 C 631.806472 148.502647 638.6536 142.84587 644.174483 135.724805 C 649.695366 128.588326 653.874582 120.311243 656.665866 110.847317 C 659.457151 101.398804 660.845082 91.410816 660.845082 80.883354 C 660.845082 70.371305 659.457151 60.414144 656.665866 51.027286 C 653.85916 41.640427 649.695366 33.394172 644.174483 26.257693 C 638.6536 19.136627 631.806472 13.47985 623.617676 9.287362 C 615.413459 5.094873 605.867575 2.983215 594.949181 2.983215 C 584.030787 2.983215 574.438638 5.094873 566.188157 9.287362 C 557.937676 13.464437 551.01344 19.136627 545.41545 26.257693 C 539.832881 33.378758 535.622822 41.640427 532.846959 51.027286 C 530.055675 60.414144 528.652322 70.371305 528.652322 80.883354 C 528.652322 91.410816 530.055675 101.398804 532.846959 110.847317 C 535.638244 120.29583 539.832881 128.588326 545.41545 135.724805 C 551.01344 142.84587 557.937676 148.502647 566.188157 152.695136 C 574.45406 156.887624 584.030787 158.983868 594.949181 158.983868 C 605.867575 158.983868 615.413459 156.887624 623.617676 152.695136 Z M 623.617676 152.695136 " stroke="#231f20" stroke-width="3" stroke-opacity="1" stroke-miterlimit="10"/></g><g clip-path="url(#61bff712df)"><path fill="#231f20" d="M 183.941406 49.792969 C 184.398438 50.453125 185.011719 50.78125 185.789062 50.78125 L 186.292969 50.78125 L 186.292969 51.742188 L 179.3125 51.742188 L 179.3125 50.78125 C 180.292969 50.78125 181.042969 50.492188 181.566406 49.917969 C 182.089844 49.34375 182.351562 48.414062 182.351562 47.132812 L 182.351562 15.851562 C 182.351562 14.703125 182.113281 13.800781 181.640625 13.144531 C 181.171875 12.484375 180.542969 12.15625 179.769531 12.15625 L 179.3125 12.15625 L 179.3125 11.246094 L 185.132812 11.246094 L 213.109375 47.238281 L 213.109375 15.851562 C 213.109375 14.703125 212.882812 13.800781 212.425781 13.144531 C 211.96875 12.484375 211.351562 12.15625 210.578125 12.15625 L 210.121094 12.15625 L 210.121094 11.246094 L 217.050781 11.246094 L 217.050781 12.160156 C 216.074219 12.160156 215.332031 12.457031 214.828125 13.046875 C 214.320312 13.636719 214.066406 14.574219 214.066406 15.855469 L 214.066406 52.300781 L 213.054688 52.300781 L 211.691406 50.480469 L 183.257812 13.980469 L 183.257812 47.136719 C 183.257812 48.246094 183.484375 49.136719 183.941406 49.792969 Z M 183.941406 49.792969 " fill-opacity="1" fill-rule="nonzero"/></g><g clip-path="url(#c98a686aa8)"><path stroke-linecap="butt" transform="matrix(0.2533, 0, 0, 0.253429, 7.467571, 10.841622)" fill="none" stroke-linejoin="miter" d="M 696.699978 153.697017 C 698.504289 156.301909 700.925458 157.596648 703.994329 157.596648 L 705.983697 157.596648 L 705.983697 161.388384 L 678.425547 161.388384 L 678.425547 157.596648 C 682.296334 157.596648 685.257254 156.456044 687.32373 154.190251 C 689.390206 151.924457 690.423443 148.25603 690.423443 143.200382 L 690.423443 19.768583 C 690.423443 15.236996 689.482734 11.676464 687.616738 9.086986 C 685.766162 6.482094 683.283307 5.187355 680.229858 5.187355 L 678.425547 5.187355 L 678.425547 1.595995 L 701.403523 1.595995 L 811.852024 143.616548 L 811.852024 19.768583 C 811.852024 15.236996 810.957579 11.676464 809.153268 9.086986 C 807.348958 6.482094 804.912367 5.187355 801.858918 5.187355 L 800.054607 5.187355 L 800.054607 1.595995 L 827.412278 1.595995 L 827.412278 5.202768 C 823.556913 5.202768 820.626835 6.374199 818.637467 8.701646 C 816.632677 11.029094 815.630282 14.728349 815.630282 19.783997 L 815.630282 163.592523 L 811.636124 163.592523 L 806.254034 156.409804 L 694.001222 12.385488 L 694.001222 143.215795 C 694.001222 147.593247 694.895667 151.107539 696.699978 153.697017 Z M 696.699978 153.697017 " stroke="#231f20" stroke-width="3" stroke-opacity="1" stroke-miterlimit="10"/></g></svg>